<svg width="16" height="17" viewBox="0 0 16 17" fill="none" xmlns="http://www.w3.org/2000/svg">
<rect width="16" height="15.1464" transform="translate(0 0.926758)" fill="#317AAB"/>
<path d="M15.9524 9.45808C15.9125 9.37881 15.8135 9.33901 15.7341 9.3192C15.2772 9.3192 11.349 9.16066 11.349 4.5969C11.349 4.45818 11.2301 4.33911 11.0907 4.33911C10.9523 4.33911 10.8333 4.45818 10.8333 4.5969C10.8333 9.16066 6.90463 9.3192 6.46801 9.3192C6.40856 9.3192 6.34894 9.33901 6.30931 9.37881C6.26951 9.39863 6.24953 9.4381 6.23004 9.45808C6.19025 9.53751 6.19025 9.63659 6.23004 9.71603C6.26968 9.79562 6.36876 9.85491 6.46801 9.85491C6.46801 9.85491 6.46801 9.85491 6.48783 9.85491C6.94427 9.85491 10.8531 10.0138 10.8531 14.577C10.8531 14.7158 10.972 14.835 11.1112 14.835C11.2501 14.835 11.3688 14.7158 11.3688 14.577C11.3688 10.0334 15.2775 9.85491 15.7343 9.85491C15.8333 9.85491 15.9126 9.79562 15.9724 9.71603C16.0117 9.63659 16.0117 9.53767 15.9524 9.45808Z" fill="white"/>
<path d="M5.53561 12.7123C5.29748 12.7123 3.15464 12.6329 3.15464 10.1329C3.15464 9.99382 3.03558 9.87476 2.89686 9.87476C2.75798 9.87476 2.63891 9.99366 2.63891 10.1329C2.63891 12.6329 0.496076 12.7123 0.257946 12.7123C0.238129 12.7123 0.238129 12.7123 0.238129 12.7123C0.0992476 12.7321 0 12.8311 0 12.9701C0 13.1092 0.119065 13.2282 0.257946 13.2282C0.515893 13.2282 2.63891 13.3073 2.63891 15.8074C2.63891 15.9461 2.75798 16.0655 2.89686 16.0655C3.01593 16.1051 3.13499 15.9862 3.13499 15.8273C3.13499 13.3271 5.27783 13.2479 5.51596 13.2479H5.53578C5.67466 13.2479 5.79372 13.129 5.79372 12.9701C5.79356 12.8311 5.6745 12.7123 5.53561 12.7123Z" fill="white"/>
<path d="M7.81719 4.29955C7.95623 4.29955 8.0753 4.18049 8.0753 4.02179C8.0753 3.88291 7.95623 3.76401 7.81719 3.76401C7.57938 3.76401 5.43638 3.68457 5.43638 1.1847C5.43638 1.04582 5.31732 0.926758 5.17844 0.926758C5.03956 0.926758 4.92065 1.04582 4.92065 1.1847C4.92065 3.68474 2.77765 3.76401 2.53968 3.76401C2.51971 3.76401 2.51971 3.76401 2.51971 3.76401C2.38082 3.78382 2.28174 3.88291 2.28174 4.02179C2.28174 4.16067 2.4008 4.27974 2.53968 4.27974C2.79763 4.27974 4.92065 4.359 4.92065 6.85904C4.92065 6.99792 5.03956 7.11698 5.17844 7.11698C5.2975 7.13696 5.41657 7.0179 5.41657 6.87885C5.41657 4.37882 7.55924 4.29955 7.79753 4.29955H7.81719Z" fill="white"/>
</svg>
