<svg width="16" height="16" viewBox="0 0 16 16" fill="none" xmlns="http://www.w3.org/2000/svg">
<path d="M15.6003 7.02228L12.381 9.83183L13.3453 14.0147C13.3964 14.2334 13.3818 14.4623 13.3035 14.6727C13.2251 14.8831 13.0865 15.0658 12.9049 15.1979C12.7233 15.33 12.5068 15.4056 12.2825 15.4153C12.0582 15.425 11.8359 15.3684 11.6436 15.2525L7.99536 13.0397L4.35495 15.2525C4.16263 15.3684 3.94041 15.425 3.71607 15.4153C3.49174 15.4056 3.27524 15.33 3.09365 15.1979C2.91206 15.0658 2.77343 14.8831 2.6951 14.6727C2.61676 14.4623 2.6022 14.2334 2.65323 14.0147L3.61616 9.83611L0.396178 7.02228C0.22587 6.8754 0.10272 6.6815 0.0421704 6.46491C-0.0183792 6.24831 -0.0136323 6.01866 0.0558155 5.80475C0.125263 5.59084 0.256321 5.4022 0.432553 5.26248C0.608785 5.12276 0.822346 5.03818 1.04646 5.01934L5.29075 4.65173L6.94749 0.700102C7.03401 0.492752 7.17994 0.315637 7.36692 0.191056C7.55389 0.0664754 7.77354 0 7.99822 0C8.22289 0 8.44254 0.0664754 8.62952 0.191056C8.81649 0.315637 8.96242 0.492752 9.04894 0.700102L10.7107 4.65173L14.9535 5.01934C15.1777 5.03818 15.3912 5.12276 15.5674 5.26248C15.7437 5.4022 15.8747 5.59084 15.9442 5.80475C16.0136 6.01866 16.0184 6.24831 15.9578 6.46491C15.8973 6.6815 15.7741 6.8754 15.6038 7.02228H15.6003Z" fill="#317AAB"/>
</svg>
