<svg width="16" height="17" viewBox="0 0 16 17" fill="none" xmlns="http://www.w3.org/2000/svg">
<path d="M3.21778 7.42888C4.49778 9.94443 6.56 11.9978 9.07556 13.2867L11.0311 11.3311C11.2711 11.0911 11.6267 11.0111 11.9378 11.1178C12.9333 11.4467 14.0089 11.6244 15.1111 11.6244C15.6 11.6244 16 12.0244 16 12.5133V15.6155C16 16.1044 15.6 16.5044 15.1111 16.5044C6.76444 16.5044 0 9.73999 0 1.39332C0 0.904433 0.4 0.504433 0.888889 0.504433H4C4.48889 0.504433 4.88889 0.904433 4.88889 1.39332C4.88889 2.50443 5.06667 3.5711 5.39556 4.56666C5.49333 4.87777 5.42222 5.22443 5.17333 5.47332L3.21778 7.42888ZM15.2533 1.11777L14.6222 0.495544L8.88889 6.09554V2.28221H8V7.61555H13.3333V6.72666H9.64444L15.2533 1.11777Z" fill="black"/>
</svg>
