<svg width="16" height="16" viewBox="0 0 16 16" fill="none" xmlns="http://www.w3.org/2000/svg">
<path d="M10.5011 11.3665L11.8574 9.98875C12.04 9.80549 12.2712 9.68004 12.5227 9.62763C12.7742 9.57522 13.0352 9.59811 13.2742 9.69352L14.9272 10.3639C15.1686 10.4635 15.3757 10.6335 15.5222 10.8524C15.6688 11.0713 15.7482 11.3294 15.7506 11.5941V14.6694C15.7492 14.8495 15.7119 15.0274 15.6411 15.1925C15.5702 15.3576 15.4671 15.5064 15.3382 15.6299C15.2092 15.7535 15.0569 15.8492 14.8906 15.9114C14.7242 15.9736 14.5472 16.001 14.3701 15.9918C2.78723 15.2599 0.450066 5.29577 0.0080635 1.48234C-0.0124546 1.29508 0.00629224 1.10552 0.0630705 0.926141C0.119849 0.746763 0.213372 0.58163 0.337487 0.441606C0.461602 0.301581 0.613496 0.189839 0.783177 0.113729C0.952857 0.0376199 1.13648 -0.00113121 1.32196 2.51373e-05H4.24644C4.50741 0.000809835 4.76218 0.0808867 4.97798 0.229956C5.19379 0.379026 5.36075 0.59027 5.45741 0.83652L6.11738 2.51566C6.21441 2.75742 6.23917 3.02287 6.18856 3.27885C6.13795 3.53482 6.01421 3.76997 5.83281 3.95492L4.47653 5.33268C4.47653 5.33268 5.2576 10.7022 10.5011 11.3665Z" fill="#317AAB"/>
</svg>
