<svg width="16" height="16" viewBox="0 0 16 16" fill="none" xmlns="http://www.w3.org/2000/svg">
<path d="M10.6673 11.3665L12.0451 9.98875C12.2307 9.80549 12.4654 9.68004 12.7209 9.62763C12.9764 9.57522 13.2416 9.59811 13.4844 9.69352L15.1635 10.3639C15.4088 10.4635 15.6191 10.6335 15.768 10.8524C15.9169 11.0713 15.9976 11.3294 16 11.5941V14.6694C15.9986 14.8495 15.9607 15.0274 15.8887 15.1925C15.8167 15.3576 15.712 15.5064 15.581 15.6299C15.45 15.7535 15.2953 15.8492 15.1263 15.9114C14.9573 15.9736 14.7775 16.001 14.5976 15.9918C2.83136 15.2599 0.457192 5.29577 0.00819117 1.48234C-0.0126518 1.29508 0.00639187 1.10552 0.0640691 0.926141C0.121746 0.746763 0.21675 0.58163 0.34283 0.441606C0.468911 0.301581 0.62321 0.189839 0.795577 0.113729C0.967944 0.0376199 1.15447 -0.00113121 1.34289 2.51373e-05H4.31368C4.57878 0.000809835 4.83758 0.0808867 5.0568 0.229956C5.27602 0.379026 5.44563 0.59027 5.54382 0.83652L6.21424 2.51566C6.31281 2.75742 6.33796 3.02287 6.28654 3.27885C6.23513 3.53482 6.10944 3.76997 5.92516 3.95492L4.5474 5.33268C4.5474 5.33268 5.34084 10.7022 10.6673 11.3665Z" fill="#317AAB"/>
</svg>
