<svg width="16" height="16" viewBox="0 0 16 16" fill="none" xmlns="http://www.w3.org/2000/svg">
<path d="M5.86654 12.2592L7.99987 15.4571L10.1332 12.2592H14.3999C14.6828 12.2592 14.9541 12.1468 15.1541 11.9468C15.3542 11.7467 15.4665 11.4754 15.4665 11.1925V1.59999C15.4665 1.45997 15.4389 1.32131 15.3853 1.19196C15.3317 1.06261 15.2531 0.945088 15.1541 0.846123C15.055 0.747159 14.9374 0.66869 14.808 0.615201C14.6786 0.561713 14.5399 0.534254 14.3999 0.534394H1.59987C1.31697 0.534394 1.04566 0.646775 0.845623 0.846813C0.645584 1.04685 0.533203 1.31816 0.533203 1.60106V11.1947C0.533203 11.7835 1.01 12.2603 1.59987 12.2603L5.86654 12.2592Z" stroke="#2A6495" stroke-linecap="square" stroke-linejoin="round"/>
</svg>
