<svg width="16" height="16" viewBox="0 0 16 16" fill="none" xmlns="http://www.w3.org/2000/svg">
<path d="M4 4.5H4.5V4V0.666667C4.5 0.622464 4.51756 0.580072 4.54882 0.548816C4.58007 0.517559 4.62246 0.5 4.66667 0.5H15.3333C15.3775 0.5 15.4199 0.517559 15.4512 0.548815C15.4824 0.58007 15.5 0.622463 15.5 0.666667V11.3333C15.5 11.3775 15.4824 11.4199 15.4512 11.4512C15.4199 11.4824 15.3775 11.5 15.3333 11.5H12H11.5V12V15.3333C11.5 15.3775 11.4824 15.4199 11.4512 15.4512C11.4199 15.4824 11.3775 15.5 11.3333 15.5H0.666667C0.622463 15.5 0.58007 15.4824 0.548816 15.4512C0.517559 15.4199 0.5 15.3775 0.5 15.3333V4.66667C0.5 4.62246 0.517559 4.58007 0.548816 4.54882C0.580072 4.51756 0.622464 4.5 0.666667 4.5H4ZM10.6667 15.1667H11.1667V14.6667V5.33333V4.83333H10.6667H1.33333H0.833333V5.33333V14.6667V15.1667H1.33333H10.6667ZM14.6667 11.1667H15.1667V10.6667V1.33333V0.833333H14.6667H5.33333H4.83333V1.33333V4V4.5H5.33333H11.3333C11.3775 4.5 11.4199 4.51756 11.4512 4.54882C11.4824 4.58007 11.5 4.62246 11.5 4.66667V10.6667V11.1667H12H14.6667Z" fill="black" stroke="#7D7D7D"/>
</svg>
