<svg width="87" height="24" viewBox="0 0 87 24" fill="none" xmlns="http://www.w3.org/2000/svg">
<path d="M5.99992 7.66675C5.99992 7.13632 6.21063 6.62761 6.5857 6.25253C6.96078 5.87746 7.46949 5.66675 7.99992 5.66675C8.53035 5.66675 9.03906 5.87746 9.41413 6.25253C9.7892 6.62761 9.99992 7.13632 9.99992 7.66675C9.99992 8.19718 9.7892 8.70589 9.41413 9.08096C9.03906 9.45603 8.53035 9.66675 7.99992 9.66675C7.46949 9.66675 6.96078 9.45603 6.5857 9.08096C6.21063 8.70589 5.99992 8.19718 5.99992 7.66675ZM12.3333 6.33341C11.8912 6.33341 11.4673 6.50901 11.1547 6.82157C10.8422 7.13413 10.6666 7.55805 10.6666 8.00008C10.6666 8.44211 10.8422 8.86603 11.1547 9.17859C11.4673 9.49115 11.8912 9.66675 12.3333 9.66675C12.7753 9.66675 13.1992 9.49115 13.5118 9.17859C13.8243 8.86603 13.9999 8.44211 13.9999 8.00008C13.9999 7.55805 13.8243 7.13413 13.5118 6.82157C13.1992 6.50901 12.7753 6.33341 12.3333 6.33341ZM3.66659 6.33341C3.22456 6.33341 2.80063 6.50901 2.48807 6.82157C2.17551 7.13413 1.99992 7.55805 1.99992 8.00008C1.99992 8.44211 2.17551 8.86603 2.48807 9.17859C2.80063 9.49115 3.22456 9.66675 3.66659 9.66675C4.10861 9.66675 4.53254 9.49115 4.8451 9.17859C5.15766 8.86603 5.33325 8.44211 5.33325 8.00008C5.33325 7.55805 5.15766 7.13413 4.8451 6.82157C4.53254 6.50901 4.10861 6.33341 3.66659 6.33341ZM6.41658 10.3334C6.04086 10.3334 5.68053 10.4827 5.41485 10.7483C5.14917 11.014 4.99992 11.3744 4.99992 11.7501V15.3334C4.99992 16.1291 5.31599 16.8921 5.8786 17.4547C6.44121 18.0173 7.20427 18.3334 7.99992 18.3334C8.79557 18.3334 9.55863 18.0173 10.1212 17.4547C10.6838 16.8921 10.9999 16.1291 10.9999 15.3334V11.7501C10.9999 11.3744 10.8507 11.014 10.585 10.7483C10.3193 10.4827 9.95897 10.3334 9.58325 10.3334H6.41658ZM4.33325 11.7501C4.33325 11.2167 4.53392 10.7297 4.86392 10.3611C4.77151 10.3426 4.67749 10.3333 4.58325 10.3334H2.74992C2.3742 10.3334 2.01386 10.4827 1.74818 10.7483C1.48251 11.014 1.33325 11.3744 1.33325 11.7501V15.0001C1.33314 15.403 1.43738 15.7991 1.63583 16.1498C1.83427 16.5005 2.12016 16.7939 2.46564 17.0013C2.81112 17.2087 3.20442 17.3231 3.60724 17.3333C4.01006 17.3436 4.40867 17.2493 4.76425 17.0597C4.48039 16.5287 4.33232 15.9356 4.33325 15.3334V11.7501ZM11.6666 15.3334C11.6666 15.9574 11.5106 16.5451 11.2356 17.0597C11.5912 17.2493 11.9898 17.3436 12.3926 17.3333C12.7954 17.3231 13.1887 17.2087 13.5342 17.0013C13.8797 16.7939 14.1656 16.5005 14.364 16.1498C14.5625 15.7991 14.6667 15.403 14.6666 15.0001V11.7501C14.6666 11.3744 14.5173 11.014 14.2517 10.7483C13.986 10.4827 13.6256 10.3334 13.2499 10.3334H11.4166C11.3206 10.3334 11.2266 10.3431 11.1359 10.3611C11.4783 10.7427 11.6673 11.2374 11.6666 11.7501V15.3334Z" fill="white"/>
<path d="M33.776 17.152C32.496 17.872 31.328 18.208 29.856 18.208C26.656 18.208 24.528 15.84 24.528 12.704C24.528 9.44 26.912 7.056 30.176 7.056C31.312 7.056 32.384 7.232 33.488 7.52V10.4H33.232L32.576 9.36C31.936 8.336 31.456 7.6 30.144 7.6C29.6 7.6 29.072 7.744 28.608 8.032C27.088 8.944 26.672 10.864 26.672 12.512C26.672 15.36 28.048 17.328 31.056 17.328C31.936 17.328 32.816 17.152 33.664 16.896L33.776 17.152ZM40.2526 11.104C40.2526 11.664 39.8366 12.064 39.2766 12.064C38.8286 12.064 38.4766 11.808 38.2686 11.424L37.3406 12.048V17.36L38.5246 17.84V18H34.4606V17.84L35.4686 17.36V11.392L34.4606 10.832V10.688L37.3406 10.08V11.664C37.7886 11.008 38.4126 10.112 39.2926 10.112C39.8686 10.112 40.2526 10.544 40.2526 11.104ZM47.9148 14.16C47.9148 16.4 46.5548 18.208 44.2028 18.208C41.8668 18.208 40.5068 16.368 40.5068 14.16C40.5068 11.952 41.8828 10.112 44.2028 10.112C46.5548 10.112 47.9148 11.92 47.9148 14.16ZM45.8988 14.16C45.8988 13.072 45.7708 10.592 44.2028 10.592C42.6508 10.592 42.5228 13.088 42.5228 14.16C42.5228 15.232 42.6508 17.728 44.2028 17.728C45.7708 17.728 45.8988 15.248 45.8988 14.16ZM58.9686 10.496L58.1046 10.992L55.7206 18.128H55.4326L53.3686 13.36L51.4806 18.128H51.1766L48.6646 10.96L47.6886 10.496V10.32H51.6886V10.496L50.6166 10.944L52.0886 15.296L53.6246 10.544H54.0406L56.1366 15.36L57.2726 10.992L56.3926 10.496V10.32H58.9686V10.496ZM66.6094 17.792L63.7454 18.224V17.168C63.2174 17.824 62.4974 18.208 61.6494 18.208C59.5694 18.208 58.8974 16.096 58.8974 14.368C58.8974 12.032 60.0974 10.112 62.6094 10.112C62.9774 10.112 63.3454 10.144 63.7134 10.224V8.208L62.7054 7.648V7.488L65.5854 6.896V17.168L66.6094 17.616V17.792ZM63.7134 16.736V11.216C63.4094 10.832 63.0254 10.528 62.5134 10.528C60.9774 10.528 60.8974 13.232 60.8974 14.272C60.8974 15.184 60.9934 17.456 62.3374 17.456C62.8654 17.456 63.3454 17.088 63.7134 16.736ZM73.6285 13.936V14.08H69.0845C69.1165 15.68 69.8365 17.328 71.6605 17.328C72.2845 17.328 72.9245 17.232 73.5325 17.056L73.6285 17.248C72.6685 17.888 71.7085 18.208 70.5565 18.208C68.3325 18.208 67.1005 16.336 67.1005 14.272C67.1005 12.16 68.1725 10.112 70.5245 10.112C72.7325 10.112 73.6285 11.968 73.6285 13.936ZM71.6445 13.568C71.6445 12.8 71.5965 10.592 70.4285 10.592C69.2285 10.592 69.0845 12.928 69.0845 13.744L71.6445 13.568ZM82.3125 17.792L79.4485 18.224V17.168C78.9205 17.824 78.2005 18.208 77.3525 18.208C75.2725 18.208 74.6005 16.096 74.6005 14.368C74.6005 12.032 75.8005 10.112 78.3125 10.112C78.6805 10.112 79.0485 10.144 79.4165 10.224V8.208L78.4085 7.648V7.488L81.2885 6.896V17.168L82.3125 17.616V17.792ZM79.4165 16.736V11.216C79.1125 10.832 78.7285 10.528 78.2165 10.528C76.6805 10.528 76.6005 13.232 76.6005 14.272C76.6005 15.184 76.6965 17.456 78.0405 17.456C78.5685 17.456 79.0485 17.088 79.4165 16.736Z" fill="white"/>
</svg>
