<svg width="16" height="16" viewBox="0 0 16 16" fill="none" xmlns="http://www.w3.org/2000/svg">
<path fill-rule="evenodd" clip-rule="evenodd" d="M8 16C12.4184 16 16 12.4184 16 8C16 3.5816 12.4184 0 8 0C3.5816 0 0 3.5816 0 8C0 12.4184 3.5816 16 8 16ZM3.8 8C3.8 7.796 3.8144 7.596 3.8424 7.4H6.4C6.55913 7.4 6.71174 7.33679 6.82426 7.22426C6.93679 7.11174 7 6.95913 7 6.8C7 6.64087 6.93679 6.48826 6.82426 6.37574C6.71174 6.26321 6.55913 6.2 6.4 6.2H4.204C4.45249 5.67563 4.80694 5.20843 5.245 4.82788C5.68307 4.44734 6.19523 4.16169 6.7492 3.98896C7.30317 3.81623 7.88692 3.76016 8.46363 3.8243C9.04035 3.88844 9.59752 4.07138 10.1 4.3616C10.1683 4.40162 10.2438 4.42774 10.3222 4.43846C10.4006 4.44918 10.4803 4.44428 10.5568 4.42406C10.6333 4.40383 10.7051 4.36868 10.7679 4.32061C10.8308 4.27255 10.8835 4.21252 10.9231 4.144C10.9626 4.07547 10.9882 3.99979 10.9984 3.92133C11.0086 3.84286 11.0032 3.76315 10.9825 3.68678C10.9618 3.61042 10.9261 3.53891 10.8776 3.47638C10.8292 3.41384 10.7688 3.36151 10.7 3.3224C10.0133 2.92634 9.24781 2.68626 8.4579 2.6192C7.668 2.55215 6.87301 2.65975 6.12935 2.93439C5.3857 3.20902 4.71159 3.64395 4.15487 4.20832C3.59815 4.77269 3.17246 5.45266 2.908 6.2H2.4C2.24087 6.2 2.08826 6.26321 1.97574 6.37574C1.86321 6.48826 1.8 6.64087 1.8 6.8C1.8 6.95913 1.86321 7.11174 1.97574 7.22426C2.08826 7.33679 2.24087 7.4 2.4 7.4H2.6328C2.5887 7.79878 2.5887 8.20122 2.6328 8.6H2.4C2.24087 8.6 2.08826 8.66321 1.97574 8.77574C1.86321 8.88826 1.8 9.04087 1.8 9.2C1.8 9.35913 1.86321 9.51174 1.97574 9.62426C2.08826 9.73679 2.24087 9.8 2.4 9.8H2.9072C3.1717 10.5475 3.5975 11.2276 4.15437 11.792C4.71124 12.3565 5.38553 12.7914 6.12939 13.066C6.87324 13.3406 7.66841 13.4481 8.45846 13.3808C9.24851 13.3135 10.0141 13.0732 10.7008 12.6768C10.7709 12.6384 10.8326 12.5863 10.8823 12.5237C10.932 12.461 10.9687 12.3891 10.9902 12.3121C11.0118 12.2351 11.0177 12.1546 11.0076 12.0752C10.9976 11.9959 10.9717 11.9194 10.9317 11.8502C10.8917 11.781 10.8382 11.7205 10.7744 11.6722C10.7107 11.624 10.6379 11.589 10.5604 11.5692C10.483 11.5495 10.4023 11.5455 10.3232 11.5573C10.2442 11.5692 10.1683 11.5968 10.1 11.6384C9.59752 11.9286 9.04035 12.1116 8.46363 12.1757C7.88692 12.2398 7.30317 12.1838 6.7492 12.011C6.19523 11.8383 5.68307 11.5527 5.245 11.1721C4.80694 10.7916 4.45249 10.3244 4.204 9.8H6.4C6.55913 9.8 6.71174 9.73679 6.82426 9.62426C6.93679 9.51174 7 9.35913 7 9.2C7 9.04087 6.93679 8.88826 6.82426 8.77574C6.71174 8.66321 6.55913 8.6 6.4 8.6H3.8424C3.81407 8.40126 3.7999 8.20075 3.8 8Z" fill="white"/>
</svg>
