<svg width="16" height="16" viewBox="0 0 16 16" fill="none" xmlns="http://www.w3.org/2000/svg">
<path d="M1.33203 8C1.33203 9.5913 1.96417 11.1174 3.08939 12.2426C4.21461 13.3679 5.74073 14 7.33203 14C8.92536 14 10.452 13.3733 11.5987 12.2667L10.5987 11.2667C10.1788 11.711 9.67233 12.0644 9.11046 12.3052C8.5486 12.546 7.94332 12.669 7.33203 12.6667C3.17203 12.6667 1.09203 7.64 4.03203 4.7C6.97203 1.76 11.9987 3.84667 11.9987 8H9.9987L12.6654 10.6667H12.732L15.332 8H13.332C13.332 6.4087 12.6999 4.88258 11.5747 3.75736C10.4495 2.63214 8.92333 2 7.33203 2C5.74073 2 4.21461 2.63214 3.08939 3.75736C1.96417 4.88258 1.33203 6.4087 1.33203 8Z" fill="#166EC5"/>
</svg>
