<svg width="16" height="16" viewBox="0 0 16 16" fill="none" xmlns="http://www.w3.org/2000/svg">
<path d="M15.9683 10.2072C15.4614 11.8617 14.4457 13.3142 13.0655 14.3581C11.8538 15.2701 10.4119 15.8263 8.90161 15.9643C7.39133 16.1023 5.87248 15.8167 4.51552 15.1394C3.15857 14.4622 2.01723 13.4201 1.21962 12.1302C0.421998 10.8403 -0.000328885 9.35368 3.83959e-05 7.83711C-0.00541435 6.06694 0.570044 4.34388 1.63813 2.93225C2.68197 1.5521 4.13451 0.53634 5.78906 0.0295008C5.89811 -0.00407674 6.01424 -0.00729204 6.12498 0.0202007C6.23572 0.0476934 6.33687 0.104854 6.41755 0.185535C6.49823 0.266216 6.55539 0.367365 6.58288 0.478103C6.61038 0.588841 6.60716 0.704979 6.57358 0.814027C6.21179 2.01077 6.18146 3.28324 6.48581 4.49586C6.79017 5.70848 7.41781 6.81581 8.30186 7.69985C9.1859 8.5839 10.2932 9.21154 11.5058 9.5159C12.7185 9.82025 13.9909 9.78992 15.1877 9.42813C15.2967 9.39455 15.4129 9.39133 15.5236 9.41883C15.6343 9.44632 15.7355 9.50348 15.8162 9.58416C15.8969 9.66484 15.954 9.76599 15.9815 9.87673C16.009 9.98747 16.0058 10.1036 15.9722 10.2127L15.9683 10.2072Z" fill="white"/>
</svg>
