<svg width="16" height="16" viewBox="0 0 16 16" fill="none" xmlns="http://www.w3.org/2000/svg">
<path d="M1.85204 13.1227L2.28402 10.1607C2.31036 9.9671 2.3986 9.78704 2.53667 9.64826L10.9067 1.26684C11.0152 1.15722 11.1501 1.07733 11.2984 1.03483C11.4467 0.992335 11.6035 0.988661 11.7536 1.02416C12.5219 1.2369 13.2183 1.65347 13.7691 2.22974C14.3438 2.78433 14.7574 3.48427 14.9661 4.25517C15.0016 4.4053 14.9979 4.56204 14.9554 4.71034C14.9129 4.85864 14.8331 4.99353 14.7234 5.10207L6.34414 13.4728C6.20501 13.6103 6.02489 13.6987 5.83102 13.7248L2.86973 14.1567C2.72985 14.1771 2.58713 14.1643 2.45313 14.1192C2.31914 14.0742 2.19766 13.9982 2.09854 13.8974C1.99941 13.7966 1.92544 13.6738 1.88261 13.5391C1.83978 13.4044 1.82931 13.2615 1.85204 13.122M9.32322 2.861L13.1399 6.67772" stroke="#7D7D7D" stroke-width="1.60127" stroke-linecap="round" stroke-linejoin="round"/>
</svg>
