<svg width="16" height="17" viewBox="0 0 16 17" fill="none" xmlns="http://www.w3.org/2000/svg">
<path fill-rule="evenodd" clip-rule="evenodd" d="M8 16.5C12.4184 16.5 16 12.9184 16 8.5C16 4.0816 12.4184 0.5 8 0.5C3.5816 0.5 0 4.0816 0 8.5C0 12.9184 3.5816 16.5 8 16.5ZM3.8 8.5C3.8 8.296 3.8144 8.096 3.8424 7.9H6.4C6.55913 7.9 6.71174 7.83679 6.82426 7.72426C6.93679 7.61174 7 7.45913 7 7.3C7 7.14087 6.93679 6.98826 6.82426 6.87574C6.71174 6.76321 6.55913 6.7 6.4 6.7H4.204C4.45249 6.17563 4.80694 5.70843 5.245 5.32788C5.68307 4.94734 6.19523 4.66169 6.7492 4.48896C7.30317 4.31623 7.88692 4.26016 8.46363 4.3243C9.04035 4.38844 9.59752 4.57138 10.1 4.8616C10.1683 4.90162 10.2438 4.92774 10.3222 4.93846C10.4006 4.94918 10.4803 4.94428 10.5568 4.92406C10.6333 4.90383 10.7051 4.86868 10.7679 4.82061C10.8308 4.77255 10.8835 4.71252 10.9231 4.644C10.9626 4.57547 10.9882 4.49979 10.9984 4.42133C11.0086 4.34286 11.0032 4.26315 10.9825 4.18678C10.9618 4.11042 10.9261 4.03891 10.8776 3.97638C10.8292 3.91384 10.7688 3.86151 10.7 3.8224C10.0133 3.42634 9.24781 3.18626 8.4579 3.1192C7.668 3.05215 6.87301 3.15975 6.12935 3.43439C5.3857 3.70902 4.71159 4.14395 4.15487 4.70832C3.59815 5.27269 3.17246 5.95266 2.908 6.7H2.4C2.24087 6.7 2.08826 6.76321 1.97574 6.87574C1.86321 6.98826 1.8 7.14087 1.8 7.3C1.8 7.45913 1.86321 7.61174 1.97574 7.72426C2.08826 7.83679 2.24087 7.9 2.4 7.9H2.6328C2.5887 8.29878 2.5887 8.70122 2.6328 9.1H2.4C2.24087 9.1 2.08826 9.16321 1.97574 9.27574C1.86321 9.38826 1.8 9.54087 1.8 9.7C1.8 9.85913 1.86321 10.0117 1.97574 10.1243C2.08826 10.2368 2.24087 10.3 2.4 10.3H2.9072C3.1717 11.0475 3.5975 11.7276 4.15437 12.292C4.71124 12.8565 5.38553 13.2914 6.12939 13.566C6.87324 13.8406 7.66841 13.9481 8.45846 13.8808C9.24851 13.8135 10.0141 13.5732 10.7008 13.1768C10.7709 13.1384 10.8326 13.0863 10.8823 13.0237C10.932 12.961 10.9687 12.8891 10.9902 12.8121C11.0118 12.7351 11.0177 12.6546 11.0076 12.5752C10.9976 12.4959 10.9717 12.4194 10.9317 12.3502C10.8917 12.281 10.8382 12.2205 10.7744 12.1722C10.7107 12.124 10.6379 12.089 10.5604 12.0692C10.483 12.0495 10.4023 12.0455 10.3232 12.0573C10.2442 12.0692 10.1683 12.0968 10.1 12.1384C9.59752 12.4286 9.04035 12.6116 8.46363 12.6757C7.88692 12.7398 7.30317 12.6838 6.7492 12.511C6.19523 12.3383 5.68307 12.0527 5.245 11.6721C4.80694 11.2916 4.45249 10.8244 4.204 10.3H6.4C6.55913 10.3 6.71174 10.2368 6.82426 10.1243C6.93679 10.0117 7 9.85913 7 9.7C7 9.54087 6.93679 9.38826 6.82426 9.27574C6.71174 9.16321 6.55913 9.1 6.4 9.1H3.8424C3.81407 8.90126 3.7999 8.70075 3.8 8.5Z" fill="white"/>
</svg>
