<svg width="24" height="24" viewBox="0 0 24 24" fill="none" xmlns="http://www.w3.org/2000/svg">
<path d="M4.28424 10.295C4.09805 10.484 3.99457 10.7392 3.99653 11.0044C3.9985 11.2697 4.10577 11.5233 4.29474 11.7095C4.4837 11.8957 4.73889 11.9992 5.00416 11.9972C5.26943 11.9952 5.52305 11.888 5.70924 11.699L10.9992 6.329L10.9992 20C10.9992 20.2652 11.1046 20.5196 11.2921 20.7071C11.4797 20.8946 11.734 21 11.9992 21C12.2645 21 12.5188 20.8946 12.7063 20.7071C12.8939 20.5196 12.9992 20.2652 12.9992 20L12.9992 6.335L18.2862 11.7C18.4743 11.8794 18.7247 11.9786 18.9846 11.9765C19.2444 11.9744 19.4933 11.8712 19.6784 11.6888C19.8635 11.5065 19.9704 11.2592 19.9763 10.9994C19.9822 10.7396 19.8868 10.4877 19.7102 10.297L12.8882 3.372C12.7719 3.25408 12.6334 3.16045 12.4806 3.09654C12.3278 3.03263 12.1639 2.99972 11.9982 2.99972C11.8326 2.99972 11.6687 3.03263 11.5159 3.09654C11.3631 3.16045 11.2245 3.25408 11.1082 3.372L4.28424 10.295Z" fill="white"/>
</svg>
