<svg xmlns="http://www.w3.org/2000/svg" width="50" height="42" viewBox="0 0 50 42" fill="none">
<path d="M8.49999 20C8.49999 20 7.99998 22 3.49999 19.5C-0.973229 17.0149 2.70508 7.40833 7.41531 4.05945C7.46876 4.02145 7.49999 3.96087 7.49999 3.89529V1L8.49999 20ZM8.49999 20L7.59346 40.8501C7.58291 41.0929 7.23003 41.1103 7.19566 40.8697L5.52314 29.1621C5.18555 26.7989 5.70444 24.393 6.98602 22.3791L8.49999 20ZM8.49999 20L11.75 17M11.75 17L14.758 14.2234C14.8683 14.1216 15.0472 14.1729 15.0866 14.3177L15.75 16.75M11.75 17L14.8031 22.6366C14.8828 22.7836 15.0969 22.7738 15.1628 22.6201L16.4725 19.5641C16.4903 19.5226 16.4935 19.4763 16.4816 19.4327L15.75 16.75M15.75 16.75L21.5 14M21.5 14L17.6123 19.3455C17.5495 19.432 17.5657 19.5526 17.6491 19.6193L19.776 21.3208C19.8847 21.4077 20.0467 21.3599 20.0907 21.2279L21.5 17M21.5 14V17M21.5 17L24.7543 19.7894C24.8672 19.8862 25.0424 19.8303 25.0785 19.6861L26.2011 15.1957C26.2561 14.9755 26.5771 15.0026 26.5945 15.2288L26.941 19.7337C26.9569 19.9393 27.2357 19.9894 27.322 19.8022L29.7621 14.5155C29.8412 14.3441 30.0919 14.3676 30.1377 14.5508L31.4312 19.7247C31.4647 19.8588 31.621 19.9193 31.7361 19.8426L34.4463 18.0358C34.4812 18.0125 34.5079 17.9789 34.5226 17.9396L35.3549 15.7202C35.4389 15.4962 35.774 15.5819 35.7402 15.8187L35.1743 19.7799C35.1422 20.0045 35.4497 20.1006 35.5512 19.8977L38.2659 14.4682C38.348 14.304 38.5894 14.3279 38.6377 14.505L39.9598 19.3526C39.9835 19.4396 40.0626 19.5 40.1528 19.5H44M44 19.5L42.563 17.105C42.5243 17.0406 42.5251 16.9599 42.5649 16.8961L44.9165 13.1335C44.9655 13.0552 45.0617 13.0206 45.1494 13.0498L46.2959 13.432C46.4061 13.4687 46.4619 13.5914 46.4172 13.6986L45.25 16.5M44 19.5L45.25 16.5M45.25 16.5L49.5 19.5" stroke="white"/>
</svg>