<svg width="16" height="16" viewBox="0 0 16 16" fill="none" xmlns="http://www.w3.org/2000/svg">
<path d="M15.6003 7.28813L12.381 10.204L13.3453 14.5453C13.3964 14.7722 13.3818 15.0098 13.3035 15.2282C13.2251 15.4466 13.0865 15.6362 12.9049 15.7733C12.7233 15.9103 12.5068 15.9888 12.2825 15.9989C12.0582 16.009 11.8359 15.9502 11.6436 15.8299L7.99536 13.5333L4.35495 15.8299C4.16263 15.9502 3.94041 16.009 3.71607 15.9989C3.49174 15.9888 3.27524 15.9103 3.09365 15.7733C2.91206 15.6362 2.77343 15.4466 2.6951 15.2282C2.61676 15.0098 2.6022 14.7722 2.65323 14.5453L3.61616 10.2085L0.396178 7.28813C0.22587 7.13569 0.10272 6.93445 0.0421704 6.70965C-0.0183792 6.48486 -0.0136323 6.24651 0.0558155 6.0245C0.125263 5.8025 0.256321 5.60671 0.432553 5.4617C0.608785 5.31669 0.822346 5.22891 1.04646 5.20936L5.29075 4.82784L6.94749 0.726606C7.03401 0.511407 7.17994 0.327586 7.36692 0.198289C7.55389 0.068992 7.77354 0 7.99822 0C8.22289 0 8.44254 0.068992 8.62952 0.198289C8.81649 0.327586 8.96242 0.511407 9.04894 0.726606L10.7107 4.82784L14.9535 5.20936C15.1777 5.22891 15.3912 5.31669 15.5674 5.4617C15.7437 5.60671 15.8747 5.8025 15.9442 6.0245C16.0136 6.24651 16.0184 6.48486 15.9578 6.70965C15.8973 6.93445 15.7741 7.13569 15.6038 7.28813H15.6003Z" fill="white"/>
</svg>
