<svg width="12" height="12" viewBox="0 0 12 12" fill="none" xmlns="http://www.w3.org/2000/svg">
<path d="M10.4911 3.95853L4.99113 9.45853C4.94323 9.5066 4.8863 9.54474 4.82363 9.57077C4.76095 9.59679 4.69376 9.61019 4.62589 9.61019C4.55803 9.61019 4.49084 9.59679 4.42816 9.57077C4.36548 9.54474 4.30856 9.5066 4.26066 9.45853L1.85441 7.05228C1.80645 7.00432 1.7684 6.94738 1.74244 6.88471C1.71649 6.82204 1.70313 6.75488 1.70313 6.68705C1.70312 6.61922 1.71649 6.55205 1.74244 6.48938C1.7684 6.42672 1.80645 6.36978 1.85441 6.32181C1.90237 6.27385 1.95931 6.2358 2.02198 6.20985C2.08465 6.18389 2.15181 6.17053 2.21964 6.17053C2.28747 6.17053 2.35464 6.18389 2.41731 6.20985C2.47997 6.2358 2.53692 6.27385 2.58488 6.32181L4.62632 8.36326L9.76152 3.22892C9.85839 3.13206 9.98976 3.07764 10.1268 3.07764C10.2637 3.07764 10.3951 3.13206 10.492 3.22892C10.5889 3.32579 10.6433 3.45717 10.6433 3.59416C10.6433 3.73115 10.5889 3.86252 10.492 3.95939L10.4911 3.95853Z" fill="white"/>
</svg>
