<svg width="16" height="17" viewBox="0 0 16 17" fill="none" xmlns="http://www.w3.org/2000/svg">
<rect width="16" height="17" fill="#F3F3F3"/>
<g id="CoverPage" clip-path="url(#clip0_555_63)">
<rect width="1440" height="777" transform="translate(-137 -512)" fill="#F7F7F8"/>
<g id="Frame 318">
<g id="Frame 310">
<g id="1">
<g id="Frame 296">
<path d="M-8 -1C-8 -6.52285 -3.52285 -11 2 -11H272C277.523 -11 282 -6.52285 282 -0.999999V28H-8V-1Z" fill="white"/>
<g id="Group 137" filter="url(#filter0_d_555_63)">
<g id="Group 135">
<path id="Star 1" d="M7.52426 1.23515C7.74756 0.890082 8.25244 0.890082 8.47574 1.23515L9.48037 2.78758C9.6261 3.01277 9.90977 3.10494 10.16 3.00841L11.8853 2.34298C12.2688 2.19507 12.6772 2.49183 12.6551 2.90224L12.5553 4.74869C12.5409 5.01654 12.7162 5.25784 12.9754 5.32685L14.7623 5.80258C15.1595 5.90832 15.3155 6.38849 15.0563 6.70749L13.8903 8.14268C13.7212 8.35087 13.7212 8.64913 13.8903 8.85732L15.0563 10.2925C15.3155 10.6115 15.1595 11.0917 14.7623 11.1974L12.9754 11.6732C12.7162 11.7422 12.5409 11.9835 12.5553 12.2513L12.6551 14.0978C12.6772 14.5082 12.2688 14.8049 11.8853 14.657L10.16 13.9916C9.90977 13.8951 9.6261 13.9872 9.48037 14.2124L8.47574 15.7649C8.25244 16.1099 7.74756 16.1099 7.52426 15.7649L6.51963 14.2124C6.3739 13.9872 6.09023 13.8951 5.83997 13.9916L4.11471 14.657C3.73123 14.8049 3.32278 14.5082 3.34494 14.0978L3.44467 12.2513C3.45914 11.9835 3.28383 11.7422 3.02462 11.6732L1.23773 11.1974C0.840545 11.0917 0.684531 10.6115 0.943702 10.2925L2.1097 8.85732C2.27884 8.64913 2.27884 8.35087 2.1097 8.14268L0.943702 6.70749C0.684531 6.38849 0.840545 5.90833 1.23773 5.80258L3.02462 5.32685C3.28383 5.25784 3.45914 5.01654 3.44467 4.74869L3.34494 2.90224C3.32278 2.49183 3.73123 2.19507 4.11471 2.34298L5.83997 3.00841C6.09023 3.10494 6.3739 3.01277 6.51963 2.78758L7.52426 1.23515Z" fill="black"/>
</g>
<g id="Group">
<path id="Vector" fill-rule="evenodd" clip-rule="evenodd" d="M10.8682 6.63198C10.9526 6.71641 11 6.83091 11 6.9503C11 7.06969 10.9526 7.18419 10.8682 7.26862L7.49344 10.6434C7.44884 10.688 7.39589 10.7234 7.33762 10.7475C7.27934 10.7716 7.21688 10.7841 7.1538 10.7841C7.09072 10.7841 7.02826 10.7716 6.96999 10.7475C6.91171 10.7234 6.85877 10.688 6.81417 10.6434L5.13745 8.96695C5.09445 8.92541 5.06015 8.87573 5.03655 8.8208C5.01296 8.76587 5.00054 8.70679 5.00002 8.647C4.9995 8.58722 5.01089 8.52793 5.03353 8.4726C5.05617 8.41726 5.0896 8.36699 5.13187 8.32472C5.17415 8.28244 5.22442 8.24901 5.27975 8.22637C5.33509 8.20374 5.39437 8.19234 5.45416 8.19286C5.51394 8.19338 5.57302 8.2058 5.62795 8.2294C5.68289 8.253 5.73257 8.2873 5.7741 8.3303L7.15365 9.70985L10.2312 6.63198C10.273 6.59014 10.3227 6.55695 10.3773 6.5343C10.432 6.51166 10.4905 6.5 10.5497 6.5C10.6089 6.5 10.6674 6.51166 10.7221 6.5343C10.7767 6.55695 10.8264 6.59014 10.8682 6.63198Z" fill="white"/>
</g>
</g>
</g>
</g>
</g>
</g>
</g>
<defs>
<filter id="filter0_d_555_63" x="0" y="0.5" width="24" height="24" filterUnits="userSpaceOnUse" color-interpolation-filters="sRGB">
<feFlood flood-opacity="0" result="BackgroundImageFix"/>
<feColorMatrix in="SourceAlpha" type="matrix" values="0 0 0 0 0 0 0 0 0 0 0 0 0 0 0 0 0 0 127 0" result="hardAlpha"/>
<feOffset dx="4" dy="4"/>
<feGaussianBlur stdDeviation="2"/>
<feComposite in2="hardAlpha" operator="out"/>
<feColorMatrix type="matrix" values="0 0 0 0 0 0 0 0 0 0 0 0 0 0 0 0 0 0 0.03 0"/>
<feBlend mode="normal" in2="BackgroundImageFix" result="effect1_dropShadow_555_63"/>
<feBlend mode="normal" in="SourceGraphic" in2="effect1_dropShadow_555_63" result="shape"/>
</filter>
<clipPath id="clip0_555_63">
<rect width="1440" height="777" fill="white" transform="translate(-137 -512)"/>
</clipPath>
</defs>
</svg>
