<svg width="24" height="24" viewBox="0 0 24 24" fill="none" xmlns="http://www.w3.org/2000/svg">
<circle cx="12" cy="12" r="12" fill="black"/>
<path d="M14.5022 17H9.15639V16.8604L10.6462 16.1623V7.4712H10.6287C10.6287 7.4712 10.1905 7.4712 9.78738 7.57592C9.5944 7.64572 9.36672 7.71553 9.06858 7.99476C8.77044 8.274 7.17528 9.89703 7.17528 9.89703L7 9.82722L7.22821 7H10.6809H16.202L16.5 9.82722L16.3247 9.89703C16.3247 9.89703 14.7296 8.274 14.4318 7.99476C14.1338 7.71553 13.906 7.64572 13.713 7.57592C13.3095 7.4712 12.9589 7.48866 12.9589 7.48866V16.1449L14.4667 16.8429L14.5022 17Z" fill="white"/>
</svg>
