<svg width="16" height="16" viewBox="0 0 16 16" fill="none" xmlns="http://www.w3.org/2000/svg">
<g clip-path="url(#clip0_572_23925)">
<path d="M16 0H0V16H16V0Z" fill="black"/>
<path fill-rule="evenodd" clip-rule="evenodd" d="M11 13H5V12.864L7 12V3.47355L6.81407 3.4662C6.81407 3.4662 6.35184 3.46222 5.92608 3.56728C5.72143 3.63344 5.48838 3.70328 5.16914 3.98294C4.8499 4.26229 3.18012 5.89766 3.18012 5.89766L3 5.83119L3.24952 3H6.8838H6.88702H12.6869L13 5.83119L12.8199 5.89736C12.8199 5.89736 11.1504 4.26198 10.8312 3.98263C10.5119 3.70297 10.2789 3.63314 10.0742 3.56728C9.64848 3.46252 9.28147 3.47355 9.28147 3.47355H9V12L11 12.8527V13Z" fill="white"/>
</g>
<defs>
<clipPath id="clip0_572_23925">
<rect width="16" height="16" fill="white"/>
</clipPath>
</defs>
</svg>
