<svg width="22" height="22" viewBox="0 0 22 22" fill="none" xmlns="http://www.w3.org/2000/svg">
<path d="M11.3236 1.42032L12.5688 3.34459C12.9251 3.89516 13.6186 4.1205 14.2305 3.8845L16.369 3.05968C16.6298 2.95908 16.9076 3.16092 16.8926 3.44006L16.769 5.72879C16.7336 6.38363 17.1622 6.97357 17.7959 7.14229L20.0108 7.73198C20.281 7.8039 20.3871 8.13048 20.2108 8.34745L18.7655 10.1264C18.352 10.6354 18.352 11.3646 18.7655 11.8736L20.2108 13.6525C20.3871 13.8695 20.281 14.1961 20.0108 14.268L17.7959 14.8577C17.1622 15.0264 16.7336 15.6164 16.769 16.2712L16.8926 18.5599C16.9076 18.8391 16.6298 19.0409 16.369 18.9403L14.2305 18.1155C13.6187 17.8795 12.9251 18.1048 12.5688 18.6554L11.3236 20.5797C11.1717 20.8144 10.8283 20.8144 10.6764 20.5797L9.43116 18.6554C9.07486 18.1048 8.38135 17.8795 7.76949 18.1155L5.63098 18.9403C5.37016 19.0409 5.09235 18.8391 5.10743 18.5599L5.23104 16.2712C5.26641 15.6164 4.8378 15.0264 4.20408 14.8577L1.98917 14.268C1.71903 14.1961 1.61291 13.8695 1.78919 13.6525L3.23448 11.8736C3.648 11.3646 3.648 10.6354 3.23448 10.1264L1.78919 8.34745C1.61291 8.13048 1.71903 7.8039 1.98917 7.73198L4.20408 7.14229C4.8378 6.97357 5.26641 6.38363 5.23104 5.72879L5.10743 3.44006C5.09235 3.16092 5.37016 2.95908 5.63098 3.05968L7.76949 3.8845C8.38135 4.1205 9.07486 3.89516 9.43116 3.34459L10.6764 1.42032C10.8283 1.18562 11.1717 1.18562 11.3236 1.42032Z" fill="#2E73A0" stroke="#2E73A0"/>
</svg>
