<svg width="16" height="16" viewBox="0 0 16 16" fill="none" xmlns="http://www.w3.org/2000/svg">
<path d="M15.9527 8.95814C15.9127 8.87887 15.8138 8.83908 15.7343 8.81926C15.2774 8.81926 11.3493 8.66072 11.3493 4.09696C11.3493 3.95824 11.2304 3.83917 11.091 3.83917C10.9526 3.83917 10.8335 3.95824 10.8335 4.09696C10.8335 8.66072 6.90488 8.81926 6.46825 8.81926C6.4088 8.81926 6.34919 8.83908 6.30955 8.87887C6.26976 8.89869 6.24978 8.93816 6.23029 8.95814C6.19049 9.03757 6.19049 9.13666 6.23029 9.21609C6.26992 9.29568 6.36901 9.35497 6.46825 9.35497C6.46825 9.35497 6.46825 9.35497 6.48807 9.35497C6.94451 9.35497 10.8533 9.51383 10.8533 14.0771C10.8533 14.2158 10.9722 14.3351 11.1115 14.3351C11.2503 14.3351 11.3691 14.2158 11.3691 14.0771C11.3691 9.53348 15.2777 9.35497 15.7345 9.35497C15.8336 9.35497 15.9129 9.29568 15.9726 9.21609C16.0119 9.13666 16.0119 9.03773 15.9527 8.95814Z" fill="white"/>
<path d="M5.53561 12.2124C5.29748 12.2124 3.15464 12.133 3.15464 9.63293C3.15464 9.49388 3.03558 9.37482 2.89686 9.37482C2.75798 9.37482 2.63891 9.49372 2.63891 9.63293C2.63891 12.133 0.496076 12.2124 0.257946 12.2124C0.238129 12.2124 0.238129 12.2124 0.238129 12.2124C0.0992476 12.2322 0 12.3311 0 12.4702C0 12.6092 0.119065 12.7283 0.257946 12.7283C0.515893 12.7283 2.63891 12.8074 2.63891 15.3074C2.63891 15.4461 2.75798 15.5655 2.89686 15.5655C3.01593 15.6052 3.13499 15.4863 3.13499 15.3274C3.13499 12.8272 5.27783 12.7479 5.51596 12.7479H5.53578C5.67466 12.7479 5.79372 12.629 5.79372 12.4702C5.79356 12.3311 5.6745 12.2124 5.53561 12.2124Z" fill="white"/>
<path d="M7.81719 3.79955C7.95623 3.79955 8.0753 3.68049 8.0753 3.52179C8.0753 3.38291 7.95623 3.26401 7.81719 3.26401C7.57938 3.26401 5.43638 3.18457 5.43638 0.684704C5.43638 0.545822 5.31732 0.426758 5.17844 0.426758C5.03956 0.426758 4.92065 0.545822 4.92065 0.684704C4.92065 3.18474 2.77765 3.26401 2.53968 3.26401C2.51971 3.26401 2.51971 3.26401 2.51971 3.26401C2.38082 3.28382 2.28174 3.38291 2.28174 3.52179C2.28174 3.66067 2.4008 3.77974 2.53968 3.77974C2.79763 3.77974 4.92065 3.859 4.92065 6.35904C4.92065 6.49792 5.03956 6.61698 5.17844 6.61698C5.2975 6.63696 5.41657 6.5179 5.41657 6.37885C5.41657 3.87882 7.55924 3.79955 7.79753 3.79955H7.81719Z" fill="white"/>
</svg>
